<?xml version="1.0" standalone="no"?>
<!DOCTYPE svg PUBLIC "-//W3C//DTD SVG 20010904//EN"
 "http://www.w3.org/TR/2001/REC-SVG-20010904/DTD/svg10.dtd">
<svg version="1.0" xmlns="http://www.w3.org/2000/svg"
 width="300.000000pt" height="300.000000pt" viewBox="0 0 300.000000 300.000000"
 preserveAspectRatio="xMidYMid meet">
<metadata>
Created by potrace 1.10, written by Peter Selinger 2001-2011
</metadata>
<g transform="translate(0.000000,300.000000) scale(0.100000,-0.100000)"
fill="#435345" stroke="none">
<path d="M1326 2618 c-3 -7 -23 -86 -45 -176 -36 -145 -40 -168 -31 -210 6
-26 20 -59 30 -74 26 -35 25 -40 -8 -59 -25 -14 -27 -20 -24 -57 l4 -42 -57
26 c-39 16 -67 23 -85 19 -29 -6 -63 -38 -73 -67 -8 -22 24 -62 63 -78 50 -21
43 -42 -88 -259 -90 -148 -170 -331 -203 -461 -20 -79 -24 -120 -24 -240 1
-281 62 -410 195 -410 57 0 96 23 121 72 23 46 23 93 -1 268 -12 90 -8 182 16
292 31 152 87 280 236 538 52 91 100 186 107 213 14 48 31 63 31 27 0 -32 43
-119 131 -266 200 -337 268 -561 239 -801 -28 -240 -25 -270 31 -318 41 -34
121 -35 169 -2 94 63 142 309 106 532 -32 195 -98 352 -260 625 -47 79 -86
149 -86 156 0 6 23 25 50 42 42 26 50 36 50 61 0 20 -8 36 -25 50 -43 33 -77
35 -134 7 -28 -14 -52 -26 -54 -26 -3 0 -2 19 0 43 5 39 3 44 -21 55 -29 13
-33 37 -10 67 8 11 21 41 29 67 13 45 12 54 -16 160 -16 62 -34 136 -40 163
-6 28 -15 55 -20 60 -4 6 -29 10 -56 10 l-48 -1 -14 -99 c-11 -80 -11 -103 -1
-119 10 -15 10 -21 1 -24 -7 -2 -17 -9 -23 -16 -9 -9 -17 -7 -34 9 -20 18 -21
22 -8 36 13 14 13 30 3 105 -16 121 -11 114 -69 114 -32 0 -52 -5 -54 -12z
m66 -110 c2 -35 -1 -74 -5 -88 -11 -31 6 -80 28 -80 8 0 15 -9 15 -20 0 -12
-7 -20 -17 -20 -9 0 -35 -20 -59 -44 l-42 -44 -5 36 c-6 39 59 322 74 322 4 0
9 -28 11 -62z m198 43 c0 -11 15 -73 34 -138 22 -80 32 -131 29 -160 l-5 -41
-42 44 c-25 26 -52 44 -64 44 -15 0 -22 6 -22 20 0 11 7 20 15 20 22 0 36 35
33 87 -4 79 1 143 12 143 6 0 10 -9 10 -19z m-43 -311 c40 -24 56 -53 56 -102
0 -65 -63 -128 -128 -128 -90 0 -154 112 -109 189 36 60 119 79 181 41z m106
-230 c5 -34 3 -37 -45 -63 -52 -29 -63 -29 -71 3 -4 15 2 24 24 35 16 9 39 29
51 45 25 34 33 30 41 -20z m-297 0 c24 -22 48 -40 54 -40 12 0 13 -20 2 -37
-6 -10 -21 -6 -60 15 -48 25 -52 30 -52 65 0 20 3 37 6 37 4 0 26 -18 50 -40z
m-95 -76 c124 -64 129 -68 116 -88 -44 -68 -161 -274 -200 -351 -124 -248
-162 -469 -121 -715 18 -111 13 -152 -23 -180 -51 -40 -118 -16 -152 52 -27
56 -55 271 -46 352 25 222 87 380 274 693 52 87 75 136 78 167 5 44 5 44 -43
72 -27 15 -51 29 -53 31 -6 4 21 33 31 33 6 0 68 -30 139 -66z m595 52 c22
-16 24 -14 -40 -50 l-48 -28 4 -48 c4 -38 24 -79 100 -206 146 -243 190 -342
229 -514 32 -146 21 -400 -22 -483 -39 -77 -113 -101 -158 -53 -31 33 -35 77
-17 180 18 99 20 225 6 332 -20 154 -116 380 -268 634 -67 112 -69 115 -49
129 32 23 221 121 233 121 5 0 19 -6 30 -14z"/>
<path d="M1460 2203 c-73 -26 -60 -133 15 -133 30 0 75 41 75 68 0 40 -53 78
-90 65z m37 -59 c9 -23 -13 -40 -32 -24 -12 10 -13 16 -4 26 15 18 28 18 36
-2z"/>
<path d="M941 1301 c-13 -23 10 -47 34 -37 20 7 19 42 -1 50 -22 8 -22 8 -33
-13z"/>
<path d="M911 1188 c-12 -32 10 -58 34 -38 20 17 16 54 -8 58 -11 2 -20 -5
-26 -20z"/>
<path d="M890 1070 c-13 -25 -5 -40 20 -40 23 0 38 39 19 51 -21 13 -27 11
-39 -11z"/>
<path d="M887 983 c-11 -10 -8 -41 4 -49 16 -9 43 21 36 40 -7 16 -28 21 -40
9z"/>
<path d="M884 865 c-9 -23 3 -45 25 -45 25 0 34 14 26 40 -7 23 -43 27 -51 5z"/>
<path d="M947 2242 c-23 -25 -21 -33 6 -28 12 3 76 5 142 7 66 1 110 4 97 6
-22 4 -23 5 -5 18 16 13 2 14 -103 15 -105 0 -123 -2 -137 -18z"/>
<path d="M1743 2241 c-1 -16 8 -19 72 -25 40 -4 109 -4 154 0 79 7 81 8 65 25
-15 17 -33 19 -153 19 -126 0 -137 -1 -138 -19z"/>
<path d="M803 2088 c-29 -38 -28 -38 111 -38 111 0 136 3 136 14 0 16 93 32
132 23 13 -3 32 -1 43 3 12 5 -71 9 -196 9 -162 1 -219 -2 -226 -11z"/>
<path d="M1732 2095 c3 -3 81 -8 174 -11 185 -7 231 -14 86 -14 -55 0 -92 -4
-92 -10 0 -6 55 -10 145 -10 80 0 145 3 145 8 0 4 -7 15 -14 25 -12 15 -35 17
-231 17 -120 0 -216 -2 -213 -5z"/>
<path d="M706 1894 c-3 -9 -6 -18 -6 -20 0 -2 84 -4 188 -3 105 0 178 4 167 8
-11 5 -24 6 -29 3 -5 -3 -7 2 -3 11 6 15 -8 17 -152 17 -136 0 -160 -2 -165
-16z"/>
<path d="M1932 1899 c2 -7 -8 -16 -22 -20 -14 -4 62 -7 168 -8 179 -1 193 0
190 17 -3 15 -20 17 -171 20 -125 2 -167 -1 -165 -9z"/>
<path d="M1425 1750 c-11 -5 -16 -9 -11 -9 5 -1 3 -8 -4 -16 -11 -13 -2 -15
71 -15 63 1 79 3 66 11 -9 6 -15 14 -12 20 4 5 -3 9 -13 9 -11 0 -32 2 -48 5
-16 2 -38 0 -49 -5z"/>
<path d="M2065 1750 c-82 -3 -144 -7 -137 -8 6 -1 12 -9 12 -17 0 -13 25 -15
183 -13 174 3 182 4 182 23 0 24 -12 24 -240 15z"/>
<path d="M667 1730 c-5 -19 0 -20 175 -20 129 0 177 3 172 11 -3 6 0 15 7 20
8 5 -60 9 -167 9 -173 0 -182 -1 -187 -20z"/>
<path d="M660 1565 l0 -25 131 0 c100 0 130 3 126 13 -2 6 3 17 12 24 13 10
-12 12 -126 13 l-143 0 0 -25z"/>
<path d="M1324 1575 c3 -8 -2 -19 -11 -24 -11 -6 46 -9 162 -10 161 -1 178 1
161 14 -11 8 -14 15 -7 15 7 0 9 5 6 10 -4 6 -69 10 -162 10 -133 0 -154 -2
-149 -15z"/>
<path d="M2035 1574 c11 -8 19 -18 18 -22 -2 -4 54 -7 125 -7 124 0 127 1 130
23 3 22 3 22 -145 22 -134 -1 -146 -2 -128 -16z"/>
<path d="M1221 1391 c-9 -16 -6 -19 27 -25 52 -8 441 -5 477 4 17 4 24 8 18 9
-7 0 -13 8 -13 16 0 13 -34 15 -250 15 -233 0 -250 -1 -259 -19z"/>
<path d="M2122 1401 c-36 -22 0 -38 89 -40 56 -1 69 7 69 40 0 11 -140 12
-158 0z"/>
<path d="M702 1383 c4 -22 27 -27 93 -18 32 4 56 12 59 21 4 11 -9 14 -75 14
-71 0 -80 -2 -77 -17z"/>
<path d="M746 1290 c7 -7 24 -7 50 -1 l39 9 -49 1 c-34 1 -47 -2 -40 -9z"/>
<path d="M1180 1210 c-14 -5 -21 -8 -16 -9 5 -1 3 -8 -4 -16 -11 -14 23 -15
311 -13 316 3 324 3 324 23 0 20 -7 20 -295 21 -162 1 -306 -2 -320 -6z"/>
<path d="M1390 1080 c-146 -3 -259 -9 -252 -13 7 -5 10 -13 7 -18 -4 -5 129
-9 342 -8 191 1 340 3 331 6 -21 5 -24 19 -5 26 24 9 -161 12 -423 7z"/>
</g>
</svg>
